<?xml version="1.0" standalone="no"?>
<!DOCTYPE svg PUBLIC "-//W3C//DTD SVG 20010904//EN"
 "http://www.w3.org/TR/2001/REC-SVG-20010904/DTD/svg10.dtd">
<svg version="1.0" xmlns="http://www.w3.org/2000/svg"
 width="1532.000000pt" height="460.000000pt" viewBox="0 0 1532.000000 460.000000"
 preserveAspectRatio="xMidYMid meet">

<g transform="translate(0.000000,460.000000) scale(0.100000,-0.100000)"
fill="#000000" stroke="none">
<path d="M640 4411 c-102 -16 -246 -109 -302 -196 -14 -22 -38 -68 -52 -102
l-26 -62 0 -1735 0 -1734 22 -59 c50 -132 147 -230 286 -287 l62 -26 7025 0
7025 0 78 32 c101 43 202 140 253 243 l34 70 0 1755 0 1755 -29 60 c-61 125
-139 203 -263 262 l-58 28 -7005 1 c-3853 1 -7025 -2 -7050 -5z m6417 -591 c9
-18 13 -98 13 -297 0 -289 4 -317 46 -327 24 -6 30 -28 18 -60 -11 -28 -88
-21 -124 12 l-30 27 0 324 c-1 235 3 327 11 338 18 20 52 12 66 -17z m1337 8
c14 -19 16 -66 16 -313 0 -159 4 -295 8 -301 4 -6 19 -14 35 -18 29 -7 38 -41
15 -64 -17 -17 -80 -15 -107 4 -47 33 -51 63 -51 369 0 237 3 291 15 315 19
36 48 39 69 8z m-560 -10 c12 -16 16 -47 16 -115 l0 -93 28 0 c16 0 51 7 78
15 44 13 54 13 99 -1 64 -21 75 -29 110 -84 26 -40 30 -56 33 -147 5 -117 -4
-153 -53 -211 -61 -71 -159 -90 -240 -48 -38 20 -65 20 -92 1 -29 -21 -61 -2
-69 40 -8 45 0 638 9 653 14 20 64 14 81 -10z m-1002 -10 c32 -25 23 -78 -16
-96 -21 -9 -28 -7 -50 13 -31 29 -33 48 -6 75 23 23 49 26 72 8z m3110 -78 c3
-14 10 -43 15 -65 8 -40 8 -40 62 -45 35 -3 58 -11 64 -22 17 -27 -9 -48 -59
-48 -66 0 -74 -18 -74 -168 0 -158 8 -177 82 -189 57 -9 68 -24 42 -58 -21
-28 -123 -27 -162 2 -46 34 -52 57 -52 217 0 125 -3 152 -17 168 -9 10 -21 18
-28 18 -18 0 -48 37 -40 50 3 6 23 18 43 28 31 14 38 23 44 59 4 23 12 52 18
63 15 29 52 23 62 -10z m-1108 -104 c30 -8 63 -19 73 -24 30 -16 65 -93 70
-154 8 -86 6 -88 -156 -88 -75 0 -142 -4 -150 -9 -24 -16 -6 -81 34 -121 l35
-35 110 0 c133 0 152 -11 102 -56 -31 -28 -36 -29 -127 -29 -86 0 -102 3 -154
29 -32 17 -61 38 -65 48 -4 10 -13 30 -22 46 -34 62 -37 166 -7 268 14 48 67
98 124 118 67 24 66 24 133 7z m-3274 -16 c14 -6 36 -26 50 -43 24 -30 25 -37
28 -202 4 -201 -2 -239 -41 -243 -15 -2 -36 3 -48 11 -19 14 -25 13 -62 -4
-100 -45 -213 -8 -237 77 -27 95 23 176 120 194 30 6 77 8 103 4 60 -8 77 5
77 58 0 30 -7 45 -27 65 -27 24 -32 25 -113 19 -118 -9 -122 -8 -130 5 -4 6
-5 20 -3 30 5 18 32 29 103 43 41 8 153 -1 180 -14z m997 -16 c19 -14 38 -37
44 -51 13 -34 12 -379 -1 -404 -11 -20 -45 -26 -55 -9 -9 15 -58 12 -94 -6
-46 -23 -137 -15 -180 15 -39 28 -51 56 -51 122 0 44 5 55 38 89 30 32 48 42
91 50 30 6 70 7 88 4 18 -3 44 -3 58 0 24 6 26 10 23 58 -3 46 -7 54 -33 69
-33 20 -82 24 -166 13 -64 -8 -80 3 -55 40 20 31 90 46 185 40 60 -3 81 -9
108 -30z m985 9 c17 -10 40 -30 51 -46 20 -25 21 -40 19 -218 -1 -127 -5 -196
-13 -205 -13 -16 -45 -19 -54 -4 -9 15 -66 12 -95 -5 -14 -8 -50 -14 -80 -15
-104 0 -161 69 -145 175 12 84 94 128 229 122 56 -2 60 -1 66 23 18 75 -28
124 -114 121 -28 -1 -65 -6 -83 -12 -56 -18 -95 19 -55 54 43 38 214 45 274
10z m2042 18 c48 -12 90 -51 105 -100 15 -51 15 -342 -1 -376 -13 -28 -48 -34
-68 -10 -17 20 -38 19 -83 -5 -54 -29 -132 -27 -179 5 -30 20 -41 37 -53 80
-15 51 -15 56 5 94 11 23 39 53 61 68 36 23 51 27 130 28 49 1 94 6 100 12 7
7 8 27 4 53 -11 63 -48 83 -140 76 -38 -4 -83 -7 -100 -9 -25 -2 -31 2 -33 22
-2 13 1 28 7 34 30 30 169 45 245 28z m-3770 -65 c30 -69 55 -135 77 -213 15
-53 55 -95 69 -73 5 8 10 23 10 32 0 10 9 37 19 60 22 47 47 122 62 183 6 21
15 45 21 52 12 15 84 18 93 3 7 -11 -33 -137 -46 -146 -5 -3 -9 -12 -9 -20 0
-8 -9 -33 -19 -57 -11 -23 -31 -73 -46 -112 -15 -38 -31 -83 -37 -98 -21 -54
-93 -66 -126 -19 -21 30 -82 164 -82 181 0 9 -16 48 -56 136 -26 56 -44 117
-38 127 9 14 46 26 67 20 10 -3 28 -27 41 -56z m1023 42 c12 -21 5 -439 -8
-454 -14 -17 -51 -18 -67 -2 -18 18 -17 454 1 461 24 10 66 7 74 -5z m4621
-830 c8 -8 12 -47 12 -108 0 -52 4 -101 8 -108 14 -20 71 -32 162 -32 54 0 91
-5 98 -12 17 -17 15 -110 -2 -133 -12 -17 -30 -20 -128 -23 -62 -2 -119 -9
-125 -14 -18 -15 -18 -502 0 -538 7 -13 28 -35 46 -47 29 -20 47 -23 122 -23
100 0 109 -6 109 -80 0 -31 -6 -47 -25 -66 -26 -26 -27 -26 -174 -22 l-147 3
-51 35 c-36 25 -59 51 -80 90 l-28 55 -5 300 -5 300 -62 6 c-76 7 -93 20 -93
68 0 47 29 76 85 85 82 14 83 15 105 161 18 115 18 115 98 115 40 0 73 -5 80
-12z m-9863 -232 c72 -30 106 -57 148 -116 l32 -45 5 -270 c6 -288 7 -293 63
-376 24 -36 11 -62 -65 -121 -79 -63 -104 -63 -155 -3 -41 49 -58 54 -94 27
-13 -10 -48 -32 -78 -48 -51 -27 -62 -29 -165 -29 -103 0 -114 2 -158 28 -26
15 -58 42 -71 60 -29 38 -57 127 -52 165 2 15 6 52 10 82 12 102 87 187 200
227 59 21 221 53 270 53 29 0 45 26 45 75 0 142 -190 174 -256 43 -21 -42 -29
-48 -57 -49 -91 -3 -162 13 -177 41 -21 40 65 181 134 218 90 49 139 61 251
61 94 1 118 -3 170 -23z m947 4 c56 -22 98 -53 117 -89 18 -34 52 -26 98 22
47 49 131 87 194 87 43 0 129 -36 172 -72 15 -12 39 -50 52 -83 l25 -60 0
-387 c0 -292 -3 -389 -12 -394 -20 -13 -171 -17 -200 -5 l-28 11 0 323 c0 408
-2 416 -112 417 -63 0 -80 -11 -107 -70 -13 -29 -17 -86 -19 -345 -3 -266 -6
-312 -19 -327 -13 -15 -33 -18 -108 -18 -57 0 -95 4 -103 12 -9 9 -12 95 -12
325 0 308 0 313 -24 367 -27 60 -49 71 -119 58 -32 -6 -44 -15 -65 -52 l-27
-45 -5 -322 c-3 -177 -9 -325 -13 -330 -15 -14 -202 -10 -220 6 -15 12 -17 56
-17 460 0 245 3 456 6 468 7 27 51 43 115 43 64 0 96 -14 117 -50 9 -16 21
-30 26 -30 4 0 25 13 45 29 49 38 74 51 124 61 62 12 62 12 119 -10z m1450
-18 c79 -39 119 -90 137 -171 6 -29 11 -149 11 -273 l0 -222 36 -73 c24 -48
34 -80 30 -95 -8 -34 -122 -128 -154 -128 -18 0 -43 15 -74 45 -54 51 -75 55
-107 21 -46 -49 -116 -71 -226 -71 -125 0 -145 6 -201 57 -71 65 -78 86 -78
213 0 102 2 114 27 157 65 111 158 153 412 188 73 10 89 27 81 89 -11 84 -52
116 -137 108 -57 -5 -109 -42 -125 -89 l-11 -33 -89 2 c-81 1 -90 3 -110 27
-21 24 -21 27 -7 68 33 96 77 140 191 188 63 27 74 29 197 27 125 -2 133 -4
197 -35z m1656 12 c72 -23 91 -34 141 -83 86 -84 130 -183 144 -323 15 -158 2
-250 -54 -362 -65 -131 -132 -188 -261 -222 -58 -15 -78 -16 -134 -7 -158 27
-249 109 -324 288 -23 55 -25 72 -25 220 0 143 2 166 23 219 34 88 65 135 129
197 46 44 70 60 118 73 33 10 65 19 70 21 31 10 99 2 173 -21z m1004 -4 c66
-29 106 -76 134 -155 24 -69 24 -74 24 -430 0 -209 -4 -366 -10 -375 -14 -23
-172 -28 -205 -6 l-25 16 0 273 c-1 306 -9 408 -35 437 -41 45 -143 32 -171
-22 -40 -76 -44 -116 -44 -404 0 -247 -2 -283 -16 -295 -18 -15 -139 -25 -179
-15 -13 3 -29 16 -36 27 -14 27 -13 919 2 934 11 11 148 20 183 11 19 -5 27
-15 33 -48 10 -48 28 -60 43 -26 15 32 67 66 137 89 64 20 100 18 165 -11z
m1164 9 c141 -43 195 -94 219 -207 21 -94 20 -680 0 -729 -14 -33 -15 -33 -79
-33 -66 0 -96 14 -96 46 0 28 -28 24 -101 -14 -129 -69 -283 -77 -376 -21
-111 68 -156 202 -117 345 16 57 92 127 184 170 43 21 202 30 282 16 89 -14
103 -3 102 80 -1 37 -7 82 -14 102 -24 73 -141 94 -335 60 -136 -24 -147 -24
-163 9 -9 18 -11 42 -7 68 6 35 13 42 53 63 40 20 155 45 267 59 72 9 117 6
181 -14z m2999 -5 c128 -22 145 -35 145 -116 0 -52 -2 -58 -24 -64 -13 -3 -64
2 -115 10 -218 38 -316 -2 -282 -115 10 -34 20 -43 69 -68 31 -15 93 -41 137
-57 220 -79 293 -174 266 -345 -10 -61 -16 -72 -76 -137 -72 -80 -193 -110
-377 -93 -129 13 -195 30 -222 59 -21 24 -29 82 -17 115 11 30 39 35 86 17 15
-6 79 -15 143 -22 103 -10 124 -9 175 6 50 14 60 22 72 50 23 54 9 101 -38
136 -23 17 -46 30 -52 30 -6 0 -28 9 -50 20 -22 11 -49 20 -62 20 -12 0 -24 4
-27 9 -3 4 -32 18 -65 30 -45 16 -71 34 -105 72 -56 62 -69 104 -65 200 4 62
9 82 34 120 38 58 102 101 185 122 111 28 108 28 265 1z m3285 -1 c121 -39
184 -103 225 -225 23 -70 26 -94 23 -175 -3 -89 -5 -96 -31 -119 l-28 -24
-268 0 c-308 0 -306 1 -291 -79 11 -59 55 -118 115 -155 50 -31 50 -31 195
-30 110 0 157 4 193 17 58 21 52 20 71 1 22 -22 21 -106 -1 -131 -22 -24 -90
-49 -158 -57 -230 -29 -342 -9 -464 81 -55 41 -85 80 -124 163 -30 62 -31 71
-35 221 -4 149 -2 160 23 230 31 88 81 168 128 203 19 14 37 26 41 26 5 0 20
8 34 18 23 16 91 39 167 56 34 8 127 -3 185 -21z m-5224 0 c54 -15 75 -27 122
-73 74 -71 113 -142 141 -260 19 -79 22 -109 16 -179 -3 -47 -13 -103 -21
-125 -7 -23 -14 -49 -14 -59 0 -31 -62 -129 -116 -182 -81 -81 -126 -99 -259
-99 -105 -1 -114 1 -177 32 -36 18 -73 30 -81 26 -13 -5 -16 -37 -19 -206 -4
-236 0 -228 -113 -228 -120 0 -109 -71 -107 670 1 469 4 646 13 656 8 10 34
14 86 14 74 0 74 0 94 -35 12 -19 24 -35 27 -35 4 0 32 15 62 33 108 63 230
81 346 50z m1068 0 c67 -18 151 -75 178 -120 83 -142 102 -208 102 -353 -1
-196 -52 -332 -160 -424 -80 -68 -117 -80 -244 -80 -109 0 -118 1 -184 32 -38
18 -75 31 -82 28 -11 -4 -14 -46 -14 -210 0 -240 7 -226 -118 -226 -62 0 -83
4 -93 17 -12 13 -15 129 -17 643 -2 403 1 637 7 654 10 25 13 26 90 26 79 0
81 0 96 -30 20 -38 49 -39 101 -3 45 31 157 61 228 62 27 1 77 -7 110 -16z
m2456 -2 c123 -35 208 -89 243 -155 79 -151 81 -159 81 -326 1 -148 0 -158
-27 -220 -15 -36 -32 -72 -38 -80 -5 -8 -13 -24 -18 -35 -12 -28 -78 -87 -136
-120 -120 -71 -340 -71 -467 0 -60 34 -128 109 -161 179 -36 77 -67 203 -67
276 0 68 36 227 56 251 8 8 14 20 14 26 0 28 67 105 125 143 115 75 266 98
395 61z m-7421 -2 l31 -11 0 -77 c0 -67 -3 -82 -27 -118 -65 -95 -112 -162
-168 -240 -98 -135 -119 -172 -105 -187 6 -8 55 -22 108 -32 105 -19 196 -55
212 -84 6 -10 10 -53 10 -95 0 -71 -2 -76 -25 -87 -20 -9 -38 -6 -101 17 -44
16 -113 32 -158 36 -99 9 -246 -6 -295 -31 -20 -10 -52 -22 -72 -25 -54 -10
-62 7 -57 119 l3 94 70 101 c39 56 91 132 118 169 26 37 55 78 64 92 10 14 32
45 50 69 39 52 43 88 11 96 -13 2 -76 6 -141 7 -92 2 -120 6 -127 18 -5 8 -10
45 -10 82 0 101 -10 98 311 98 167 0 278 -4 298 -11z m8479 -22 c16 -13 16
-149 0 -165 -7 -7 -32 -12 -57 -12 -134 -1 -247 -37 -270 -87 -7 -16 -11 -129
-11 -333 0 -303 0 -310 -21 -331 -20 -20 -28 -21 -98 -15 -120 10 -111 -28
-111 483 0 280 4 441 10 454 9 16 22 19 85 19 74 0 76 0 95 -32 11 -18 20 -40
20 -48 0 -8 5 -22 10 -30 8 -12 15 -10 42 16 46 43 125 86 173 94 48 7 115 1
133 -13z m-8633 -1015 c74 -25 82 -47 66 -163 -10 -69 -24 -115 -56 -185 -90
-193 -219 -262 -140 -74 14 33 25 66 25 73 0 8 7 27 15 43 8 16 17 55 21 85 6
50 4 58 -19 85 l-25 29 -181 -1 c-163 -1 -181 0 -181 15 0 20 87 70 145 83
137 32 257 35 330 10z m-2890 -88 c38 -19 95 -49 125 -65 30 -16 58 -29 63
-29 8 0 101 -39 184 -76 17 -8 36 -14 43 -14 7 0 26 -6 43 -14 93 -41 248 -80
552 -135 28 -6 145 -15 262 -22 169 -10 247 -10 390 0 160 11 347 37 443 61
215 54 374 104 456 141 51 24 119 25 128 3 10 -26 -9 -48 -81 -96 -93 -62
-344 -188 -375 -188 -8 0 -22 -6 -33 -13 -40 -27 -316 -100 -440 -117 -38 -5
-141 -15 -228 -22 -146 -11 -171 -10 -350 11 -105 12 -212 28 -237 36 -25 7
-61 16 -80 20 -58 11 -202 55 -246 76 -22 10 -45 19 -52 19 -29 0 -316 152
-421 223 -84 57 -206 153 -235 185 -19 22 -16 52 6 52 7 0 44 -16 83 -36z"/>
<path d="M7914 3550 c-58 -18 -63 -33 -65 -175 -1 -128 -1 -130 25 -152 58
-49 151 -40 199 19 59 73 46 239 -22 288 -34 23 -95 32 -137 20z"/>
<path d="M8730 3549 c-43 -17 -70 -50 -70 -85 0 -48 18 -57 114 -53 106 5 125
18 106 74 -20 61 -86 89 -150 64z"/>
<path d="M5395 3336 c-43 -18 -59 -42 -58 -84 2 -51 24 -65 95 -59 92 8 135
51 112 112 -15 39 -93 56 -149 31z"/>
<path d="M6376 3340 c-46 -14 -66 -39 -66 -81 0 -54 20 -69 90 -69 48 0 64 4
89 26 34 28 42 76 19 106 -16 20 -92 30 -132 18z"/>
<path d="M7364 3331 c-56 -26 -71 -72 -38 -120 15 -21 23 -23 78 -19 85 5 116
27 116 83 0 51 -11 61 -70 69 -33 5 -56 1 -86 -13z"/>
<path d="M9448 3336 c-37 -16 -57 -45 -58 -82 0 -45 26 -64 88 -64 68 0 94 12
116 51 25 48 10 84 -41 98 -47 13 -70 13 -105 -3z"/>
<path d="M1349 1993 c-58 -33 -69 -51 -76 -118 -11 -108 38 -165 128 -150 69
12 128 107 129 207 0 85 -2 88 -74 88 -48 -1 -71 -6 -107 -27z"/>
<path d="M3715 1996 c-62 -37 -89 -81 -90 -143 -1 -127 116 -173 206 -80 43
45 53 78 54 177 l0 65 -65 3 c-54 2 -72 -2 -105 -22z"/>
<path d="M5469 2345 c-15 -8 -36 -36 -50 -67 -21 -46 -24 -71 -27 -192 -4
-170 15 -270 61 -323 26 -29 35 -33 79 -33 58 0 85 22 120 100 18 38 21 67 22
195 2 243 -36 336 -137 335 -23 -1 -54 -7 -68 -15z"/>
<path d="M7580 1979 c-61 -11 -106 -60 -116 -125 -10 -68 15 -111 81 -142 l49
-24 75 22 c41 12 94 35 118 51 l43 30 0 83 c0 82 -1 84 -27 94 -38 14 -168 21
-223 11z"/>
<path d="M13843 2351 c-84 -54 -137 -155 -103 -196 19 -23 381 -22 405 1 20
20 12 70 -23 140 -20 42 -34 56 -72 73 -75 34 -135 29 -207 -18z"/>
<path d="M8571 2360 c-105 -38 -101 -28 -101 -302 0 -148 4 -247 10 -259 6
-11 34 -31 63 -45 41 -20 68 -26 127 -26 66 -1 83 2 129 28 93 50 128 154 117
347 -5 96 -9 115 -36 166 -41 76 -87 103 -184 107 -52 3 -85 -1 -125 -16z"/>
<path d="M9685 2373 c-65 -14 -117 -38 -135 -60 -19 -24 -20 -40 -20 -254 0
-145 4 -237 11 -252 7 -15 33 -35 68 -51 47 -21 71 -26 139 -26 70 0 88 4 120
24 77 49 113 135 119 286 4 90 1 114 -19 173 -30 88 -65 131 -125 151 -44 15
-114 19 -158 9z"/>
<path d="M12216 2358 c-71 -13 -116 -53 -146 -129 -21 -54 -25 -80 -25 -174 0
-60 4 -131 8 -156 10 -58 48 -117 95 -149 31 -22 46 -25 127 -25 89 0 93 1
138 35 41 31 50 45 73 113 24 71 26 89 22 190 -4 93 -9 122 -30 167 -49 108
-139 151 -262 128z"/>
</g>
</svg>
