<?xml version="1.0" standalone="no"?>
<!DOCTYPE svg PUBLIC "-//W3C//DTD SVG 20010904//EN"
 "http://www.w3.org/TR/2001/REC-SVG-20010904/DTD/svg10.dtd">
<svg version="1.0" xmlns="http://www.w3.org/2000/svg"
 width="1532.000000pt" height="460.000000pt" viewBox="0 0 1532.000000 460.000000"
 preserveAspectRatio="xMidYMid meet">

<g transform="translate(0.000000,460.000000) scale(0.100000,-0.100000)"
fill="#000000" stroke="none">
<path d="M640 4373 c-19 -3 -39 -9 -44 -14 -6 -5 -21 -9 -34 -9 -39 0 -139
-60 -198 -118 -30 -30 -54 -58 -54 -63 0 -6 -9 -23 -21 -38 -11 -16 -29 -59
-40 -97 -18 -66 -18 -137 -19 -1746 0 -1201 3 -1691 11 -1725 42 -181 174
-311 360 -357 60 -15 657 -16 7058 -16 6299 0 6999 2 7049 16 190 52 301 155
353 326 18 61 19 120 19 1751 0 1855 4 1731 -60 1849 -51 94 -188 203 -277
221 -15 3 -48 10 -73 16 -43 10 -13947 13 -14030 4z m2634 -599 c21 -8 22
-106 0 -182 -64 -234 -261 -421 -471 -448 -65 -8 -83 4 -83 57 0 126 71 279
180 390 61 62 93 85 170 123 52 25 106 46 120 47 14 0 34 4 45 9 11 5 21 9 22
9 1 1 8 -2 17 -5z m4771 -404 l0 -365 -52 -3 -53 -3 0 364 c0 200 3 367 7 371
4 4 28 6 53 4 l45 -3 0 -365z m1913 -2 l2 -368 -34 0 c-44 0 -66 9 -66 25 0
24 -21 28 -43 7 -38 -35 -111 -53 -163 -42 -64 15 -99 34 -128 73 -36 48 -56
110 -56 179 0 117 40 198 121 246 50 30 157 31 205 1 19 -11 38 -18 44 -14 6
4 10 56 10 129 0 67 3 126 7 130 4 4 28 6 53 4 l45 -3 3 -367z m2686 363 c3
-4 6 -62 7 -128 0 -66 4 -126 9 -133 6 -9 17 -6 46 14 31 21 50 26 101 26 84
0 124 -24 158 -96 25 -52 25 -59 23 -231 l-3 -178 -52 -3 -53 -3 0 135 c0 221
-25 286 -110 286 -32 0 -48 -7 -78 -34 l-37 -34 -5 -174 -5 -173 -50 0 -50 0
-3 355 c-1 195 0 361 3 367 5 15 91 18 99 4z m-7259 -46 c97 -38 141 -76 182
-156 26 -50 28 -63 28 -169 0 -106 -2 -119 -28 -170 -16 -30 -42 -69 -59 -87
-45 -47 -142 -91 -228 -104 -84 -13 -245 -8 -260 7 -7 7 -9 132 -8 350 l3 339
55 7 c90 10 270 1 315 -17z m6857 -120 l3 -50 55 -5 c66 -6 80 -14 80 -45 0
-31 -14 -39 -80 -45 l-55 -5 0 -135 c0 -155 10 -183 67 -195 43 -9 58 -22 58
-49 0 -34 -20 -46 -77 -46 -73 0 -115 23 -142 76 -19 40 -21 62 -21 198 l0
153 -40 7 c-38 6 -40 8 -40 40 0 36 12 46 56 46 21 0 24 4 24 39 0 21 6 43 13
49 17 14 80 31 89 23 4 -3 8 -28 10 -56z m1268 -71 c67 -34 125 -142 118 -221
l-3 -38 -170 -5 -170 -5 -3 -25 c-4 -37 33 -89 76 -107 28 -12 58 -14 129 -10
97 6 103 3 103 -43 0 -26 -24 -37 -104 -48 -117 -15 -223 18 -272 85 -80 110
-70 259 24 364 42 47 73 62 142 72 36 6 101 -4 130 -19z m-7392 -3 c102 -52
158 -179 132 -294 -22 -97 -90 -176 -170 -199 -114 -32 -222 -1 -288 84 -22
28 -52 121 -52 161 0 99 60 205 139 247 51 27 187 28 239 1z m366 4 c8 -8 20
-41 26 -73 18 -86 69 -284 74 -290 7 -6 10 2 35 93 46 165 81 269 93 276 21
14 65 10 82 -7 9 -8 19 -27 22 -42 3 -15 12 -45 19 -67 26 -80 45 -148 45
-161 0 -19 32 -84 42 -84 4 0 8 12 8 28 0 15 9 59 19 97 52 194 62 229 67 237
8 12 92 10 100 -3 6 -11 -5 -58 -31 -129 -7 -19 -37 -109 -66 -200 l-54 -165
-54 0 -55 0 -28 90 c-46 143 -55 178 -63 219 -3 21 -10 35 -14 30 -10 -12 -35
-76 -54 -139 -63 -210 -61 -207 -126 -203 -43 3 -45 5 -62 48 -10 25 -25 72
-34 105 -10 33 -23 78 -30 100 -7 22 -21 67 -30 100 -9 33 -22 74 -28 91 -15
47 -4 64 42 64 22 0 46 -7 55 -15z m894 -17 c4 -30 25 -37 39 -14 16 26 71 46
130 46 90 -1 146 -40 171 -120 15 -45 19 -367 5 -381 -6 -6 -30 -9 -54 -7
l-44 3 -6 161 c-4 88 -10 172 -14 185 -14 46 -45 69 -93 69 -37 0 -50 -6 -78
-34 l-34 -34 0 -164 c0 -114 -4 -168 -12 -176 -14 -14 -94 -16 -102 -3 -3 5
-8 117 -10 249 -4 180 -2 242 7 246 7 3 30 4 52 3 36 -2 40 -5 43 -29z m1238
6 c142 -83 168 -288 52 -420 -37 -42 -65 -57 -136 -74 -106 -25 -226 31 -278
130 -28 54 -26 210 4 266 48 87 112 122 230 123 73 1 89 -2 128 -25z m582 12
c15 -8 36 -25 48 -38 43 -47 49 -83 49 -273 l0 -180 -39 -3 c-28 -3 -44 2 -61
18 -16 15 -25 18 -30 10 -25 -41 -149 -54 -211 -22 -51 26 -74 67 -74 130 0
101 71 160 218 183 42 6 76 17 78 24 7 18 -21 71 -41 79 -27 10 -115 7 -157
-6 -33 -10 -41 -9 -49 3 -18 29 -10 55 24 72 42 21 206 23 245 3z m1630 -5
c82 -42 132 -128 132 -228 0 -83 -23 -151 -65 -196 -124 -131 -344 -99 -421
61 -26 55 -24 193 4 247 23 45 72 95 117 118 45 24 185 23 233 -2z m396 13 c9
-3 16 -17 16 -30 0 -30 2 -30 52 6 36 26 49 30 109 30 83 0 126 -24 161 -90
21 -42 23 -56 23 -230 l0 -185 -52 -3 c-64 -4 -62 -13 -65 206 l-3 164 -28 24
c-34 29 -101 32 -133 6 -43 -36 -49 -61 -54 -232 l-5 -165 -55 0 -55 0 -3 240
c-1 132 0 245 2 252 6 13 62 18 90 7z m-7839 -408 c139 -27 248 -83 346 -179
32 -31 59 -65 59 -75 0 -9 -25 -36 -55 -59 -92 -71 -166 -177 -208 -298 -30
-89 -29 -264 3 -358 48 -140 129 -243 261 -329 50 -32 79 -58 79 -69 0 -32
-76 -194 -136 -291 -161 -261 -294 -388 -430 -411 -75 -13 -171 -1 -254 32
-127 51 -171 61 -269 61 -101 0 -170 -15 -286 -63 -33 -14 -91 -30 -130 -37
-116 -20 -203 15 -322 130 -114 110 -262 335 -332 505 -18 44 -38 94 -45 110
-7 17 -21 62 -30 100 -9 39 -22 84 -27 102 -32 104 -43 369 -20 489 62 325
231 529 511 620 40 13 88 18 175 18 121 1 146 -4 270 -55 59 -23 71 -27 122
-43 28 -9 63 -16 76 -16 24 0 203 56 222 69 10 7 94 32 170 50 58 13 170 12
250 -3z m6304 -607 c79 -12 178 -46 184 -62 5 -13 -40 -157 -53 -170 -4 -5
-23 -2 -41 6 -58 26 -165 47 -236 47 -156 0 -253 -75 -253 -195 0 -87 50 -142
189 -207 149 -69 168 -78 174 -78 16 0 147 -92 181 -126 21 -22 52 -68 69
-104 26 -57 30 -76 30 -155 1 -164 -60 -272 -198 -351 -76 -44 -110 -54 -230
-69 -161 -20 -331 2 -438 57 -38 19 -39 21 -33 59 7 45 34 130 45 142 4 4 36
-6 72 -22 73 -33 241 -65 296 -56 144 23 220 71 243 154 38 137 -34 236 -227
312 -152 59 -215 95 -291 164 -83 75 -122 159 -122 266 0 233 197 395 484 398
49 1 119 -4 155 -10z m-4052 -21 c5 -7 17 -40 27 -73 10 -33 23 -71 28 -85 6
-14 14 -38 18 -55 8 -30 26 -83 41 -120 4 -11 29 -85 55 -165 81 -250 214
-654 223 -675 20 -47 71 -214 71 -234 0 -11 -6 -21 -12 -21 -161 -5 -228 -1
-233 13 -60 193 -129 393 -138 399 -7 4 -114 8 -238 8 -170 0 -229 -3 -236
-12 -5 -7 -15 -33 -22 -58 -8 -25 -19 -63 -26 -85 -7 -22 -28 -87 -46 -145
-17 -58 -35 -109 -40 -114 -9 -10 -219 -10 -230 1 -4 4 12 67 35 138 24 72 57
173 74 225 17 52 36 109 42 125 6 17 67 201 135 410 68 209 129 394 135 410 7
17 16 46 22 65 17 60 18 60 168 60 99 0 140 -4 147 -12z m4825 -260 l3 -123
120 -3 c80 -2 122 -7 127 -15 14 -22 9 -144 -6 -156 -10 -8 -51 -12 -121 -10
-59 1 -111 -3 -116 -8 -6 -6 -9 -115 -7 -289 3 -256 5 -282 23 -319 27 -52 72
-77 138 -77 87 1 87 1 87 -88 0 -74 -1 -80 -22 -85 -167 -38 -323 -9 -384 71
-13 16 -34 52 -46 80 -22 47 -23 62 -26 374 -3 231 -7 327 -15 332 -7 4 -38 8
-69 8 -68 0 -78 11 -78 94 0 83 3 86 74 86 33 0 66 4 73 8 7 5 13 40 15 91 3
96 -3 89 113 125 123 38 114 45 117 -96z m-3422 -135 c133 -47 255 -195 282
-343 70 -369 -93 -663 -393 -711 -66 -11 -87 -10 -154 4 -76 17 -114 36 -167
85 -14 13 -31 21 -37 18 -7 -5 -11 -87 -11 -251 0 -231 -1 -245 -19 -255 -23
-12 -190 -13 -209 -2 -10 7 -12 160 -10 733 l3 724 89 3 c62 2 92 -1 97 -9 4
-7 11 -39 14 -71 8 -66 21 -73 57 -30 29 34 102 85 148 102 82 31 227 32 310
3z m1267 -19 c130 -62 212 -179 248 -354 8 -41 15 -101 15 -133 0 -61 -23
-195 -41 -237 -76 -176 -192 -277 -358 -310 -52 -11 -78 -11 -145 0 -92 15
-138 35 -180 79 -55 58 -56 55 -56 -219 0 -227 -2 -250 -17 -258 -22 -12 -193
-15 -210 -5 -13 9 -22 1430 -9 1451 10 17 170 16 184 0 5 -7 13 -39 16 -70 4
-32 12 -58 18 -58 5 0 29 19 52 43 117 117 324 147 483 71z m3253 18 c203 -58
340 -262 340 -503 0 -181 -56 -319 -173 -426 -71 -64 -145 -100 -250 -120
-164 -31 -334 12 -448 115 -113 102 -171 243 -171 415 1 245 131 443 337 516
89 32 263 33 365 3z m1091 18 c17 -9 19 -22 19 -105 0 -58 -4 -96 -11 -101 -6
-4 -43 -8 -82 -10 -79 -4 -127 -28 -170 -86 -54 -74 -57 -94 -57 -421 0 -166
-4 -307 -8 -314 -7 -11 -215 -24 -225 -13 -4 4 -11 979 -8 1028 1 17 174 17
189 -1 6 -7 12 -42 14 -77 4 -80 15 -82 66 -15 59 78 125 112 240 124 7 0 22
-4 33 -9z m835 -31 c86 -41 162 -124 203 -223 26 -63 32 -94 38 -184 4 -75 2
-115 -6 -130 l-12 -22 -344 0 -345 0 0 -41 c0 -93 87 -206 186 -242 64 -22
268 -24 340 -2 27 8 57 15 67 15 40 0 64 -142 27 -161 -61 -30 -152 -44 -305
-44 -140 0 -168 3 -220 22 -93 34 -118 49 -182 111 -68 66 -117 156 -134 247
-16 83 -6 286 17 349 49 139 131 236 250 296 82 41 137 50 263 43 77 -4 105
-10 157 -34z"/>
<path d="M9690 3423 c-39 -7 -79 -52 -97 -110 -32 -101 17 -213 101 -228 51
-10 105 12 129 53 24 41 34 147 18 194 -22 66 -84 103 -151 91z"/>
<path d="M5132 3608 c-9 -9 -12 -80 -12 -259 0 -208 2 -249 15 -259 19 -16
148 -6 200 16 50 20 112 85 125 131 66 221 -37 383 -243 383 -44 0 -78 -5 -85
-12z"/>
<path d="M13360 3427 c-36 -13 -80 -66 -80 -98 0 -17 10 -19 108 -19 128 0
139 6 111 61 -28 56 -78 76 -139 56z"/>
<path d="M5944 3420 c-90 -36 -109 -233 -30 -309 95 -92 216 -13 216 140 0
131 -86 210 -186 169z"/>
<path d="M8433 3420 c-12 -5 -36 -28 -53 -51 -27 -37 -30 -50 -30 -113 0 -85
27 -141 81 -170 107 -58 213 71 178 217 -6 29 -19 62 -27 75 -29 45 -96 63
-149 42z"/>
<path d="M9067 3235 c-76 -28 -103 -103 -51 -144 41 -33 89 -28 130 13 31 31
34 40 34 90 l0 56 -37 -1 c-21 0 -55 -7 -76 -14z"/>
<path d="M10655 3421 c-71 -29 -108 -167 -70 -258 45 -107 160 -121 225 -26
21 31 25 47 24 112 0 84 -16 125 -60 160 -28 22 -81 27 -119 12z"/>
<path d="M5458 2218 c-8 -56 -28 -125 -99 -347 -38 -117 -66 -217 -63 -222 3
-5 86 -9 185 -9 148 0 181 3 185 15 3 8 -16 81 -44 162 -65 195 -100 310 -108
353 -7 38 -29 80 -43 80 -5 0 -11 -15 -13 -32z"/>
<path d="M6746 1902 c-65 -24 -121 -73 -154 -135 -26 -51 -27 -56 -27 -222 0
-187 4 -205 69 -273 51 -55 95 -72 183 -72 68 0 85 4 129 30 55 31 115 109
128 165 4 17 11 48 16 70 25 109 0 247 -59 337 -62 92 -186 135 -285 100z"/>
<path d="M7990 1906 c-85 -24 -139 -69 -176 -151 -22 -46 -24 -63 -24 -208 0
-177 9 -212 71 -275 53 -54 98 -72 179 -72 83 0 125 15 180 66 72 67 100 149
100 295 0 93 -4 118 -25 172 -33 81 -90 140 -162 167 -61 23 -79 23 -143 6z"/>
<path d="M11323 1921 c-167 -28 -272 -292 -203 -513 39 -128 106 -197 210
-217 110 -22 205 26 265 134 93 167 77 390 -36 519 -59 68 -136 93 -236 77z"/>
<path d="M13195 1926 c-79 -22 -175 -150 -175 -233 l0 -23 233 0 c151 0 237 4
244 11 13 13 -1 88 -25 139 -46 96 -159 139 -277 106z"/>
</g>
</svg>
