<?xml version="1.0" standalone="no"?>
<!DOCTYPE svg PUBLIC "-//W3C//DTD SVG 20010904//EN"
 "http://www.w3.org/TR/2001/REC-SVG-20010904/DTD/svg10.dtd">
<svg version="1.0" xmlns="http://www.w3.org/2000/svg"
 width="1532.000000pt" height="460.000000pt" viewBox="0 0 1532.000000 460.000000"
 preserveAspectRatio="xMidYMid meet">

<g transform="translate(0.000000,460.000000) scale(0.100000,-0.100000)"
fill="#000000" stroke="none">
<path d="M645 4370 c-143 -28 -255 -115 -317 -246 l-33 -69 0 -1765 0 -1765
37 -76 c46 -94 122 -168 213 -210 l65 -29 7087 2 7088 3 58 30 c90 46 169 123
208 202 l34 68 0 1775 0 1775 -22 36 c-13 20 -23 44 -23 52 0 29 -132 153
-201 189 l-64 33 -7045 1 c-3875 1 -7063 -2 -7085 -6z m5733 -822 c26 -55 -23
-111 -76 -86 -31 15 -41 62 -22 98 17 32 80 24 98 -12z m-1568 -31 c9 -7 28
-46 44 -87 16 -41 32 -84 37 -95 15 -35 90 -238 109 -295 10 -30 25 -72 34
-92 33 -78 13 -122 -46 -99 -18 7 -31 26 -47 70 -12 33 -27 63 -33 67 -15 10
-141 13 -216 5 l-64 -6 -27 -65 c-21 -48 -35 -67 -54 -74 -29 -11 -57 5 -57
33 0 10 25 85 56 167 31 82 63 172 71 199 9 28 19 55 23 60 4 6 13 26 18 45
32 107 60 165 83 171 36 10 53 10 69 -4z m1768 1 c9 -9 12 -94 12 -323 0 -265
-2 -314 -16 -333 -8 -12 -24 -22 -34 -22 -10 0 -26 10 -34 22 -14 19 -16 68
-16 333 0 332 0 335 50 335 14 0 31 -5 38 -12z m870 0 c7 -7 12 -41 12 -84 0
-40 4 -76 10 -79 5 -3 42 5 80 19 84 31 124 32 198 9 75 -24 130 -79 165 -166
32 -80 33 -109 8 -182 -31 -88 -76 -142 -147 -175 -80 -39 -147 -40 -222 -5
-66 30 -79 31 -108 4 -28 -26 -61 -18 -75 18 -12 32 -12 594 1 627 7 20 17 26
38 26 15 0 33 -5 40 -12z m660 0 c9 -9 12 -94 12 -323 0 -265 -2 -314 -16
-333 -8 -12 -24 -22 -34 -22 -10 0 -26 10 -34 22 -14 19 -16 67 -16 326 0 190
4 311 10 323 12 22 59 26 78 7z m-2152 -135 c27 -9 60 -23 73 -32 22 -14 25
-13 41 7 23 29 75 30 90 2 15 -28 12 -459 -3 -491 -18 -35 -52 -36 -82 -3 -22
23 -29 26 -43 16 -141 -98 -322 -49 -403 109 -49 98 -31 235 43 315 48 52 65
62 128 80 63 17 99 17 156 -3z m1088 2 c27 -8 58 -23 68 -32 17 -15 20 -15 42
6 17 16 33 22 57 19 l34 -3 3 -252 c2 -219 0 -253 -14 -267 -21 -22 -38 -20
-71 8 l-29 25 -59 -30 c-79 -40 -145 -40 -229 1 -62 29 -97 65 -135 136 -33
61 -30 180 7 252 61 122 193 177 326 137z m1562 -5 c102 -35 174 -129 174
-227 0 -41 -4 -54 -19 -63 -12 -6 -99 -10 -213 -10 -106 0 -199 -4 -207 -9
-33 -21 15 -98 82 -130 80 -39 158 -24 232 43 45 41 51 42 77 19 27 -24 22
-48 -16 -88 -133 -136 -365 -106 -463 62 -22 38 -25 55 -25 132 0 79 3 95 28
141 70 129 205 179 350 130z m863 3 c43 -13 69 -30 111 -73 48 -48 57 -65 73
-126 18 -70 18 -72 -2 -141 -26 -87 -72 -142 -153 -182 -107 -54 -217 -37
-310 47 -63 57 -88 117 -88 209 0 68 4 85 29 128 41 70 90 114 153 135 68 24
117 24 187 3z m640 2 c63 -16 88 -38 127 -108 26 -47 29 -62 30 -152 0 -55 -2
-138 -5 -185 -6 -82 -7 -85 -34 -95 -50 -17 -57 6 -57 182 0 134 -3 159 -21
197 -25 55 -55 75 -118 83 -60 7 -109 -15 -148 -65 -28 -37 -28 -39 -33 -212
l-5 -175 -28 -10 c-53 -18 -57 -1 -57 271 0 209 2 245 16 259 18 17 48 13 76
-12 16 -14 21 -14 51 1 87 41 120 44 206 21z m-4970 -14 c10 -10 33 -56 50
-102 18 -46 39 -98 47 -116 8 -17 14 -36 14 -42 0 -17 43 -101 52 -101 5 0 13
12 19 28 7 15 15 36 20 47 5 11 27 69 49 129 53 141 65 162 91 169 29 8 59 -9
59 -32 0 -10 -43 -127 -96 -259 -98 -248 -100 -251 -156 -252 -28 0 -42 22
-92 151 -27 68 -68 174 -92 234 -49 122 -52 139 -26 154 25 15 40 13 61 -8z
m1225 -7 c3 -9 6 -123 6 -254 0 -204 -2 -241 -16 -254 -19 -20 -48 -21 -63 -3
-11 15 -17 499 -6 517 10 17 72 12 79 -6z m-3981 -220 c140 -32 207 -74 267
-166 21 -32 48 -95 61 -139 26 -90 39 -102 114 -99 202 8 225 -2 225 -99 0
-32 -6 -96 -14 -142 -8 -48 -17 -203 -20 -361 -6 -242 -5 -278 8 -278 18 0 26
-12 32 -46 4 -24 3 -25 -30 -19 -45 9 -53 -7 -26 -50 24 -39 35 -43 48 -19 6
12 11 13 16 5 12 -19 -4 -51 -29 -57 -28 -7 -40 -30 -19 -38 8 -3 14 -12 14
-20 0 -10 6 -13 15 -10 8 4 15 1 15 -5 0 -8 6 -7 20 1 17 11 22 10 30 -2 8
-13 10 -12 10 3 0 21 13 22 30 2 7 -8 19 -15 27 -15 11 0 13 -7 8 -31 -6 -25
-4 -31 14 -36 28 -7 27 -23 -2 -23 -34 0 -39 -11 -15 -31 25 -23 48 -24 48 -4
0 18 16 20 24 3 5 -10 7 -10 12 0 3 6 14 12 25 12 10 0 19 7 19 15 0 18 1 18
36 0 35 -18 59 -4 43 26 -15 29 9 73 44 77 25 3 27 1 27 -33 0 -27 -8 -44 -30
-67 -16 -16 -30 -38 -30 -49 0 -10 -16 -35 -35 -55 -19 -19 -35 -39 -35 -44 0
-5 -16 -14 -36 -20 -19 -7 -38 -19 -41 -27 -9 -23 -46 -56 -84 -75 -19 -10
-41 -22 -49 -26 -42 -24 -83 -42 -93 -42 -7 0 -33 -11 -60 -24 -30 -16 -74
-27 -125 -31 -42 -4 -88 -12 -102 -18 -14 -6 -65 -12 -115 -13 -49 -1 -146 -5
-215 -9 -82 -5 -157 -3 -220 5 -52 7 -125 14 -162 17 -37 2 -87 10 -110 18
-50 15 -49 15 112 20 151 4 150 4 150 15 0 6 -11 10 -25 10 -14 0 -25 4 -25 9
0 5 -13 11 -30 14 -37 8 -41 37 -5 37 17 0 23 4 19 14 -3 8 -1 17 5 21 6 3 11
15 11 26 0 14 7 19 25 19 14 0 25 5 25 11 0 6 -9 8 -22 4 -13 -3 -18 -3 -12 2
6 4 13 32 16 60 4 45 2 53 -13 58 -11 4 -19 15 -19 26 0 12 -10 23 -27 30 -20
8 -24 12 -14 22 8 8 56 13 144 14 175 2 167 2 167 12 0 5 -70 10 -157 10 -176
2 -230 7 -236 26 -3 6 -45 25 -94 41 -73 24 -95 37 -133 75 -115 118 -115 115
-150 624 -4 72 -13 159 -19 195 -20 134 -22 163 -10 192 14 34 22 36 172 41
65 3 119 6 121 8 13 16 26 52 26 76 0 44 54 148 107 204 59 63 115 96 201 119
85 23 71 23 155 4z m9257 -820 c6 -14 10 -65 10 -114 0 -104 5 -110 94 -110
75 0 86 -13 86 -100 0 -81 -3 -85 -99 -93 -35 -3 -68 -10 -73 -15 -5 -5 -8
-99 -6 -225 3 -241 6 -250 77 -263 20 -4 51 -13 69 -21 l32 -13 0 -74 c0 -111
-17 -120 -172 -94 -98 16 -154 54 -193 133 l-30 60 -5 243 c-6 273 -5 272 -80
272 -60 0 -80 22 -80 89 0 78 14 94 87 101 l58 5 11 68 c12 74 7 67 114 139
66 44 87 47 100 12z m-6387 -21 c94 -31 175 -82 245 -157 73 -77 72 -104 -4
-152 -30 -19 -70 -38 -87 -41 -29 -4 -37 1 -82 51 -27 31 -72 68 -99 83 -47
26 -60 28 -161 28 -103 0 -114 -2 -169 -30 -68 -35 -125 -95 -163 -174 -25
-50 -28 -67 -28 -161 0 -93 3 -110 25 -150 60 -110 123 -163 237 -201 117 -39
251 -6 335 83 46 48 75 108 63 128 -4 6 -63 10 -149 10 -177 0 -179 1 -184 98
-4 61 -1 73 17 91 20 20 30 21 278 21 305 0 293 4 293 -103 0 -78 -29 -195
-65 -267 -33 -65 -133 -170 -203 -213 -33 -20 -65 -37 -72 -37 -7 0 -43 -10
-82 -21 -193 -59 -467 32 -586 193 -108 147 -147 294 -123 466 7 46 16 91 21
100 4 10 20 42 34 73 29 62 49 89 120 160 144 144 376 192 589 122z m1727 17
c19 -19 20 -33 20 -544 0 -354 -4 -533 -11 -555 l-11 -31 -87 0 c-54 0 -92 5
-99 12 -18 18 -17 1101 1 1116 18 14 44 20 110 21 45 1 61 -3 77 -19z m4055
-13 c66 -22 149 -73 171 -106 22 -31 9 -57 -53 -102 -64 -48 -91 -51 -132 -16
-76 64 -219 70 -277 12 -33 -33 -34 -112 -1 -142 24 -23 131 -71 217 -98 77
-24 181 -80 219 -118 58 -56 81 -115 81 -209 0 -71 -4 -92 -29 -143 -51 -107
-126 -166 -256 -200 -92 -23 -169 -19 -277 15 -126 40 -248 127 -248 176 0 13
14 33 33 49 17 14 42 35 53 46 12 10 35 26 50 34 32 16 44 12 104 -45 43 -41
129 -80 174 -80 79 0 154 59 163 129 10 76 -38 116 -202 170 -145 48 -221 86
-270 137 -38 38 -46 55 -61 120 -16 72 -15 80 1 142 10 37 23 73 29 81 5 7 15
23 21 34 24 50 149 120 245 138 56 11 180 -1 245 -24z m-4771 -207 c38 -11 87
-31 109 -45 40 -27 67 -27 67 -1 0 34 29 46 111 46 l80 0 13 -32 c19 -46 21
-811 3 -848 -12 -23 -18 -25 -100 -28 l-87 -3 -17 36 c-9 19 -20 35 -24 35 -4
0 -25 -10 -46 -22 -150 -89 -284 -90 -453 -3 -38 20 -113 95 -145 145 -36 58
-75 191 -75 260 0 218 142 410 340 462 86 22 141 22 224 -2z m1381 4 c33 -8
80 -26 104 -40 57 -32 77 -31 96 6 15 30 17 30 95 30 70 0 81 -2 94 -22 14
-19 16 -78 16 -438 0 -318 -3 -420 -13 -433 -19 -26 -166 -28 -181 -3 -30 51
-44 61 -63 48 -10 -7 -47 -27 -83 -44 -54 -27 -79 -33 -150 -36 -73 -3 -95 0
-155 23 -216 82 -322 268 -296 518 21 194 137 333 326 388 76 22 135 23 210 3z
m4810 -3 c94 -24 148 -53 212 -114 67 -63 106 -130 133 -231 25 -89 22 -166
-10 -267 -74 -239 -353 -377 -592 -294 -133 47 -212 116 -273 241 -92 190 -52
411 102 554 66 63 98 80 198 110 77 24 143 24 230 1z m1668 4 c87 -23 155 -61
218 -124 68 -68 95 -119 120 -224 24 -98 24 -139 1 -168 l-19 -22 -328 1
c-337 1 -355 -1 -355 -38 0 -25 64 -104 103 -128 53 -31 132 -44 201 -32 44 7
71 19 112 51 30 23 54 45 54 50 0 5 11 16 25 25 23 15 27 14 89 -20 89 -50 96
-74 42 -141 -117 -142 -332 -201 -521 -141 -137 44 -226 119 -287 245 -29 60
-32 77 -36 180 -4 106 -2 118 24 185 35 88 54 118 115 178 119 116 288 163
442 123z m-5732 -27 c11 -13 50 -63 85 -113 76 -107 93 -127 113 -123 8 2 45
46 81 98 37 52 81 110 98 128 30 32 31 32 126 32 86 0 96 -2 106 -21 12 -21 7
-31 -65 -129 -11 -15 -35 -50 -54 -76 -19 -27 -56 -77 -83 -111 -60 -76 -74
-113 -57 -145 7 -13 41 -59 75 -103 99 -126 190 -248 203 -273 24 -45 10 -52
-101 -52 -75 0 -109 4 -124 15 -12 8 -58 66 -104 130 -45 64 -88 119 -96 122
-26 10 -43 -9 -169 -187 -56 -80 -63 -83 -195 -78 l-85 3 2 27 c1 25 23 57
200 295 46 62 83 121 83 133 0 11 -42 78 -94 148 -234 317 -231 302 -72 302
96 0 107 -2 127 -22z m898 12 c17 -8 71 -127 136 -295 15 -38 31 -74 35 -80 4
-5 11 -21 15 -35 4 -14 15 -43 25 -65 9 -22 20 -48 23 -57 7 -19 15 -22 34
-10 11 7 83 161 83 178 0 10 106 282 133 341 12 27 34 33 122 33 106 0 114
-16 66 -127 -16 -38 -42 -99 -56 -138 -15 -38 -31 -74 -36 -80 -5 -5 -9 -16
-9 -25 0 -8 -11 -37 -25 -65 -13 -27 -25 -54 -25 -59 0 -5 -9 -28 -19 -50 -11
-23 -31 -72 -46 -111 -30 -81 -61 -157 -81 -200 -13 -29 -74 -178 -136 -335
-17 -41 -41 -90 -54 -108 -24 -31 -28 -32 -95 -32 -77 0 -109 11 -109 38 0 10
16 56 36 102 19 47 51 126 71 175 19 50 39 94 44 100 22 22 6 86 -56 230 -36
83 -72 163 -80 178 -8 16 -15 33 -15 38 0 6 -12 36 -26 67 -89 197 -104 230
-104 239 0 4 -7 22 -16 38 -26 49 -34 86 -23 106 8 16 22 19 90 19 44 0 88 -4
98 -10z m3823 -7 c10 -9 18 -24 18 -34 0 -31 17 -30 68 5 58 39 150 53 228 36
59 -14 74 -25 74 -59 0 -32 -43 -141 -60 -151 -7 -4 -50 -5 -96 -2 -101 6
-132 -5 -177 -61 l-32 -41 -3 -283 c-3 -218 -7 -284 -17 -293 -8 -7 -48 -10
-101 -8 -84 3 -88 4 -95 28 -4 14 -7 207 -8 430 -1 482 -9 450 106 450 57 0
81 -4 95 -17z m-9565 -285 c-3 -7 -5 -2 -5 12 0 14 2 19 5 13 2 -7 2 -19 0
-25z m-52 -137 c-3 -6 -11 -11 -17 -11 -6 0 -6 6 2 15 14 17 26 13 15 -4z
m-135 -31 c0 -5 -7 -10 -15 -10 -8 0 -15 5 -15 10 0 6 7 10 15 10 8 0 15 -4
15 -10z"/>
<path d="M4753 3333 c-3 -10 -16 -43 -28 -73 -12 -30 -28 -77 -35 -103 -16
-61 -9 -67 77 -67 72 0 93 6 93 29 -1 37 -70 214 -89 226 -6 3 -14 -2 -18 -12z"/>
<path d="M7553 3280 c-125 -72 -128 -238 -5 -325 36 -24 53 -30 95 -29 93 1
156 50 183 140 26 89 -13 180 -96 222 -62 31 -113 28 -177 -8z"/>
<path d="M5815 3294 c-39 -20 -83 -62 -101 -96 -8 -15 -14 -54 -14 -87 0 -52
4 -65 33 -103 35 -47 105 -88 150 -88 15 0 50 9 77 21 84 36 129 127 109 221
-24 108 -161 180 -254 132z"/>
<path d="M6889 3287 c-62 -32 -109 -104 -109 -166 0 -61 36 -128 89 -166 107
-76 269 -5 287 127 10 69 -2 111 -46 160 -61 70 -142 86 -221 45z"/>
<path d="M8416 3287 c-43 -24 -81 -78 -72 -102 4 -12 33 -15 165 -15 180 0
189 4 150 67 -43 70 -165 95 -243 50z"/>
<path d="M9314 3296 c-66 -30 -124 -112 -124 -175 0 -77 71 -169 150 -192 117
-35 249 99 220 226 -11 50 -54 111 -90 130 -44 23 -119 28 -156 11z"/>
<path d="M2254 2940 c-63 -20 -138 -116 -132 -168 l3 -27 170 -3 c217 -3 219
-3 212 50 -14 104 -145 181 -253 148z"/>
<path d="M3090 1269 c0 -5 5 -7 10 -4 6 3 10 8 10 11 0 2 -4 4 -10 4 -5 0 -10
-5 -10 -11z"/>
<path d="M2250 1220 c0 -5 5 -10 10 -10 6 0 10 5 10 10 0 6 -4 10 -10 10 -5 0
-10 -4 -10 -10z"/>
<path d="M6111 1908 c-109 -31 -195 -147 -194 -263 0 -100 52 -189 141 -241
41 -25 58 -28 127 -29 71 0 85 3 120 27 69 46 83 61 112 118 74 147 -1 329
-160 389 -34 13 -100 13 -146 -1z"/>
<path d="M7474 1896 c-53 -25 -112 -85 -139 -143 -13 -27 -16 -56 -13 -122 3
-81 6 -92 39 -142 53 -80 119 -114 219 -114 88 1 138 22 189 81 72 82 93 173
61 268 -25 75 -87 147 -155 177 -57 26 -138 24 -201 -5z"/>
<path d="M12279 1900 c-108 -37 -180 -129 -187 -241 -4 -57 0 -76 23 -128 46
-101 124 -151 235 -151 59 0 77 4 113 26 49 31 79 63 109 119 18 32 22 56 22
121 0 69 -4 87 -27 126 -65 111 -182 163 -288 128z"/>
<path d="M13884 1890 c-28 -16 -66 -47 -84 -70 -53 -67 -44 -70 200 -70 115 0
215 3 224 6 25 10 19 33 -19 80 -50 61 -104 84 -196 84 -64 0 -81 -4 -125 -30z"/>
</g>
</svg>
