<?xml version="1.0" standalone="no"?>
<!DOCTYPE svg PUBLIC "-//W3C//DTD SVG 20010904//EN"
 "http://www.w3.org/TR/2001/REC-SVG-20010904/DTD/svg10.dtd">
<svg version="1.0" xmlns="http://www.w3.org/2000/svg"
 width="1532.000000pt" height="460.000000pt" viewBox="0 0 1532.000000 460.000000"
 preserveAspectRatio="xMidYMid meet">

<g transform="translate(0.000000,460.000000) scale(0.100000,-0.100000)"
fill="#000000" stroke="none">
<path d="M616 4404 c-127 -25 -262 -128 -322 -246 -56 -110 -54 -46 -54 -1873
0 -1813 -1 -1758 51 -1869 52 -111 185 -218 314 -252 42 -11 1232 -14 7037
-14 5138 0 7001 3 7040 11 180 39 335 194 368 370 15 79 14 3441 -1 3511 -24
110 -89 211 -181 280 -68 51 -106 67 -198 84 -112 20 -13951 19 -14054 -2z
m4579 -668 c64 -18 105 -39 134 -70 19 -20 21 -28 12 -45 -7 -12 -23 -28 -36
-37 -24 -15 -27 -15 -58 8 -51 38 -83 48 -152 48 -137 0 -245 -109 -245 -247
0 -101 57 -194 145 -234 58 -27 158 -25 215 4 51 25 112 100 108 131 -3 19
-10 21 -93 23 -133 4 -135 5 -135 58 0 25 3 46 8 46 36 7 311 4 326 -3 16 -9
18 -18 11 -81 -3 -40 -15 -91 -25 -114 -27 -60 -94 -129 -159 -160 -48 -24
-68 -28 -146 -28 -102 0 -150 15 -227 71 -168 123 -185 387 -36 537 93 92 227
128 353 93z m3035 -18 c77 -36 131 -86 170 -160 32 -59 34 -70 35 -158 0 -124
-21 -182 -92 -254 -28 -30 -78 -67 -110 -83 -51 -25 -69 -28 -148 -28 -77 1
-98 5 -145 28 -97 48 -160 120 -191 218 -59 190 37 384 224 451 74 26 184 20
257 -14z m-1738 -27 c8 -52 -5 -61 -85 -61 -44 0 -78 -5 -85 -12 -9 -9 -12
-85 -12 -278 0 -254 -1 -268 -20 -285 -16 -14 -26 -16 -52 -9 l-33 10 -3 279
c-2 208 -5 281 -15 287 -6 4 -44 8 -83 8 -82 0 -97 10 -92 62 l3 33 220 5
c121 3 227 2 236 -2 9 -4 19 -21 21 -37z m399 39 c18 -10 19 -25 19 -335 0
-281 -2 -326 -16 -339 -18 -18 -33 -20 -68 -6 l-26 10 0 330 0 331 23 9 c30
12 45 12 68 0z m1846 -120 c39 -63 102 -164 139 -223 37 -59 71 -104 75 -100
5 5 10 105 11 223 l3 215 50 0 50 0 3 -330 c2 -296 1 -331 -14 -342 -20 -14
-72 -6 -96 14 -13 12 -100 145 -163 251 -51 86 -129 202 -136 202 -5 0 -9
-101 -9 -224 0 -242 0 -240 -57 -252 -52 -10 -53 -5 -54 337 0 173 0 322 0
331 1 20 22 25 81 18 l44 -5 73 -115z m-2789 76 c2 -24 -2 -42 -10 -47 -7 -5
-72 -9 -144 -9 -94 0 -134 -4 -141 -12 -14 -21 -8 -159 8 -169 8 -5 62 -9 121
-9 58 0 113 -3 122 -6 11 -4 16 -19 16 -45 0 -47 -3 -48 -155 -52 l-110 -2 0
-90 0 -90 125 -2 c169 -4 170 -4 170 -53 0 -34 -4 -42 -26 -50 -32 -13 -354
-13 -373 -1 -12 8 -14 62 -13 333 1 178 2 329 2 336 0 10 44 12 203 10 l202
-3 3 -39z m1526 28 c10 -26 7 -61 -7 -72 -7 -6 -49 -12 -92 -14 l-80 -3 -3
-279 c-1 -159 -6 -284 -12 -291 -6 -7 -25 -9 -52 -6 l-43 6 -5 285 -5 285 -80
3 c-43 2 -85 8 -92 14 -13 11 -18 70 -6 81 3 4 111 7 239 7 202 0 233 -2 238
-16z m-5765 -56 c25 -12 98 -52 161 -88 63 -36 122 -69 130 -73 8 -4 29 -16
45 -27 17 -11 37 -23 45 -27 16 -7 140 -81 200 -118 19 -12 71 -42 115 -65
152 -82 170 -92 185 -105 8 -7 44 -27 80 -45 36 -18 67 -36 70 -41 3 -4 33
-22 65 -40 33 -17 83 -46 110 -64 28 -18 60 -35 72 -39 11 -4 27 -13 33 -21 7
-8 21 -15 31 -15 16 0 117 -49 144 -70 6 -4 28 -18 50 -30 49 -27 201 -115
314 -181 46 -27 87 -49 90 -49 22 0 113 -98 137 -148 39 -82 39 -185 0 -262
-31 -61 -94 -124 -153 -155 -21 -11 -66 -37 -100 -58 -35 -20 -65 -37 -67 -37
-3 0 -49 -26 -103 -58 -257 -154 -313 -181 -313 -153 0 13 -766 775 -851 847
-13 11 -45 43 -72 70 -26 27 -56 58 -68 69 -11 11 -110 111 -220 223 -110 111
-205 202 -212 202 -7 0 -26 20 -41 45 -16 24 -36 47 -45 50 -9 3 -34 27 -56
55 -22 28 -48 53 -57 56 -10 3 -18 9 -18 14 0 13 -75 90 -88 90 -22 0 -15 98
10 133 90 130 247 178 377 115z m3946 -1072 c112 -30 294 -139 295 -176 0 -17
-109 -130 -126 -130 -6 0 -39 18 -73 41 -97 65 -158 83 -286 83 -90 1 -121 -3
-173 -22 -87 -31 -157 -78 -220 -147 -156 -170 -179 -433 -57 -635 115 -189
336 -282 560 -236 44 9 104 29 134 43 113 58 214 194 215 293 l1 45 -233 3
-233 2 3 98 3 97 327 3 c369 3 339 9 352 -80 8 -53 -9 -202 -31 -268 -60 -185
-211 -345 -383 -405 -411 -145 -849 69 -983 480 -76 233 -7 520 170 701 96 99
230 179 350 208 32 8 67 17 78 20 39 10 251 -3 310 -18z m3880 -48 c3 -13 4
-322 3 -688 l-3 -665 -100 0 -100 0 -3 675 c-1 371 0 681 3 688 3 8 33 12 99
12 91 0 96 -1 101 -22z m2034 11 c142 -44 247 -126 302 -237 33 -65 34 -71 34
-182 -1 -105 -3 -120 -29 -172 -36 -73 -81 -126 -149 -172 -97 -67 -147 -79
-362 -85 l-190 -6 -5 -255 -5 -255 -100 0 -100 0 -3 675 c-1 371 0 681 3 688
6 16 551 17 604 1z m661 -679 l0 -690 -77 -1 c-91 -2 -105 0 -117 11 -9 9 -10
1346 0 1361 3 5 48 9 100 9 l94 0 0 -690z m-5413 204 c150 -48 244 -129 306
-262 30 -64 31 -73 32 -192 0 -124 0 -125 -37 -201 -120 -246 -401 -338 -656
-213 -162 79 -275 296 -244 473 33 195 150 335 326 391 76 24 207 26 273 4z
m1046 -4 c256 -79 386 -336 308 -608 -16 -54 -79 -149 -128 -191 -82 -73 -209
-121 -320 -121 -185 0 -354 106 -432 270 -34 73 -35 78 -36 200 0 124 0 125
37 201 61 125 156 206 298 253 66 22 195 20 273 -4z m983 4 c27 -9 63 -27 81
-40 40 -30 51 -30 63 1 9 24 13 25 100 25 86 0 90 -1 96 -24 3 -13 4 -233 1
-488 -4 -507 -5 -510 -68 -618 -32 -53 -102 -125 -143 -147 -129 -67 -307 -72
-436 -11 -83 40 -190 149 -205 211 -7 25 -4 29 31 43 22 8 53 22 71 30 35 16
73 19 73 5 0 -19 87 -105 125 -122 58 -27 168 -26 220 2 56 29 81 55 104 105
24 51 39 178 23 188 -6 4 -30 -7 -52 -23 -145 -105 -360 -71 -511 79 -52 52
-72 82 -99 145 -31 75 -34 87 -33 185 2 152 38 238 147 345 111 109 279 153
412 109z m1391 -16 c100 -41 177 -116 228 -223 20 -42 35 -81 32 -88 -6 -16
-25 -25 -177 -87 -69 -28 -134 -55 -145 -59 -11 -5 -78 -33 -150 -63 -81 -34
-131 -60 -133 -70 -5 -23 52 -83 102 -107 57 -28 157 -28 219 -1 25 11 64 39
86 61 l40 41 58 -35 c33 -20 67 -45 77 -56 17 -19 18 -22 2 -46 -20 -30 -107
-100 -155 -124 -210 -106 -480 -38 -602 150 -62 95 -74 140 -74 274 0 95 4
131 19 170 71 183 227 293 419 294 66 1 90 -4 154 -31z m2654 15 c104 -33 183
-96 236 -188 l28 -50 0 -325 0 -325 -95 0 -95 0 -3 38 c-4 42 -19 48 -48 16
-46 -52 -140 -89 -221 -89 -50 1 -140 23 -182 45 -141 72 -201 242 -135 380
72 153 323 236 512 168 55 -19 76 -12 67 25 -20 80 -102 132 -209 132 -79 0
-103 -9 -156 -56 l-41 -37 -42 18 c-96 39 -127 55 -127 66 0 29 82 118 134
146 103 54 268 70 377 36z m523 -45 c23 -49 143 -340 183 -446 26 -67 40 -92
51 -90 15 3 55 97 189 438 l49 125 112 3 c74 2 112 -1 112 -8 0 -13 -96 -240
-180 -425 -10 -22 -29 -68 -44 -102 -14 -35 -37 -86 -50 -115 -13 -29 -54
-123 -91 -208 -37 -85 -78 -180 -91 -210 -14 -30 -42 -93 -63 -140 l-37 -85
-102 -3 c-94 -2 -102 -1 -102 16 0 16 39 107 161 370 16 35 29 70 29 79 0 9
-18 54 -40 100 -22 47 -40 87 -40 90 0 3 -13 34 -30 70 -16 35 -30 66 -30 68
0 2 -15 36 -34 77 -18 40 -45 101 -60 135 -25 61 -58 134 -97 220 -33 73 -32
73 86 73 l104 0 15 -32z"/>
<path d="M7995 3629 c-61 -34 -95 -65 -121 -112 -24 -44 -28 -63 -28 -127 0
-64 4 -83 28 -127 45 -83 118 -123 221 -123 48 0 111 23 146 52 97 81 115 246
38 353 -46 64 -110 95 -195 95 -38 0 -78 -6 -89 -11z"/>
<path d="M11182 2362 c-9 -6 -12 -60 -10 -233 l3 -224 170 -3 c197 -3 232 5
289 68 46 51 66 100 66 160 0 88 -50 168 -133 212 -38 21 -59 23 -207 26 -91
1 -171 -1 -178 -6z"/>
<path d="M6584 1882 c-100 -47 -154 -139 -154 -262 0 -122 56 -216 155 -261
94 -43 223 -14 294 67 121 137 84 369 -72 450 -50 26 -172 29 -223 6z"/>
<path d="M7650 1893 c-77 -26 -138 -83 -171 -160 -31 -71 -26 -173 11 -246 16
-32 39 -67 52 -78 139 -119 338 -81 414 79 21 45 27 71 27 132 1 125 -59 220
-167 265 -34 14 -134 19 -166 8z"/>
<path d="M8645 1877 c-203 -97 -203 -419 -1 -513 70 -32 150 -32 214 0 87 44
132 117 140 226 8 123 -35 223 -121 277 -62 39 -163 43 -232 10z"/>
<path d="M10030 1899 c-89 -26 -180 -132 -180 -211 0 -26 4 -38 14 -38 12 0
102 35 191 75 17 7 67 28 113 46 97 38 103 55 37 101 -46 31 -120 43 -175 27z"/>
<path d="M12700 1591 c-86 -19 -140 -69 -140 -131 0 -73 62 -120 157 -120 99
1 182 55 224 147 23 50 18 66 -26 87 -38 19 -164 28 -215 17z"/>
</g>
</svg>
